<svg width="18" height="18" viewBox="0 0 18 18" fill="none" xmlns="http://www.w3.org/2000/svg">
<path d="M12.8769 18H5.12313C3.76486 17.9985 2.46265 17.4583 1.5022 16.4978C0.541755 15.5374 0.00151038 14.2352 0 12.8769V5.12307C0.00154713 3.76481 0.541805 2.46263 1.50224 1.5022C2.46268 0.541773 3.76487 0.00153232 5.12313 0H12.8769C14.2351 0.00154979 15.5373 0.541795 16.4977 1.50222C17.4582 2.46264 17.9984 3.76482 18 5.12307V12.8769C17.9985 14.2352 17.4582 15.5374 16.4978 16.4978C15.5373 17.4583 14.2351 17.9985 12.8769 18ZM5.12313 1.54291C4.17392 1.54397 3.2639 1.92151 2.59271 2.59268C1.92151 3.26386 1.54395 4.17387 1.54286 5.12307V12.8769C1.54393 13.8262 1.92147 14.7362 2.59267 15.4074C3.26387 16.0786 4.17391 16.4561 5.12313 16.4572H12.8769C13.8261 16.4561 14.7361 16.0786 15.4073 15.4074C16.0785 14.7362 16.4561 13.8262 16.4571 12.8769V5.12307C16.4561 4.17386 16.0785 3.26385 15.4073 2.59267C14.7361 1.92149 13.8261 1.54397 12.8769 1.54291H5.12313Z" fill="white"/>
<path d="M8.99991 13.6087C7.778 13.6073 6.60654 13.1213 5.74252 12.2573C4.8785 11.3933 4.39249 10.2218 4.39111 8.99992C4.3925 7.77802 4.87852 6.60656 5.74253 5.74254C6.60655 4.87852 7.77801 4.39251 8.99991 4.39111C10.2218 4.39251 11.3933 4.87852 12.2573 5.74254C13.1213 6.60656 13.6073 7.77802 13.6087 8.99992C13.6073 10.2218 13.1213 11.3933 12.2573 12.2573C11.3933 13.1213 10.2218 13.6073 8.99991 13.6087ZM8.99991 5.93403C8.18706 5.93494 7.40776 6.25825 6.83298 6.83301C6.25821 7.40778 5.93489 8.18707 5.93396 8.99992C5.93489 9.81278 6.2582 10.5921 6.83297 11.1669C7.40775 11.7417 8.18705 12.065 8.99991 12.0659C9.81278 12.065 10.5921 11.7417 11.1669 11.1669C11.7416 10.5921 12.0649 9.81278 12.0659 8.99992C12.0649 8.18706 11.7416 7.40776 11.1669 6.83299C10.5921 6.25822 9.81277 5.93492 8.99991 5.93403Z" fill="white"/>
<path d="M14.9141 4.12736C14.9141 4.27282 14.8854 4.41686 14.8298 4.55124C14.7741 4.68563 14.6925 4.80774 14.5897 4.91059C14.4868 5.01344 14.3647 5.09503 14.2303 5.15068C14.0959 5.20634 13.9519 5.23497 13.8064 5.23496C13.6609 5.23497 13.5169 5.20633 13.3825 5.15068C13.2481 5.09502 13.126 5.01344 13.0231 4.91059C12.9203 4.80773 12.8387 4.68563 12.783 4.55124C12.7274 4.41685 12.6987 4.27282 12.6987 4.12736C12.6987 3.98189 12.7274 3.83785 12.783 3.70346C12.8387 3.56906 12.9203 3.44695 13.0231 3.34409C13.126 3.24123 13.2481 3.15963 13.3825 3.10396C13.5169 3.0483 13.6609 3.01965 13.8064 3.01965C13.9519 3.01965 14.0959 3.0483 14.2303 3.10396C14.3647 3.15963 14.4868 3.24122 14.5897 3.34408C14.6925 3.44694 14.7741 3.56906 14.8298 3.70345C14.8854 3.83785 14.9141 3.98189 14.9141 4.12736Z" fill="white"/>
</svg>
