<svg width="16" height="14" viewBox="0 0 16 14" fill="none" xmlns="http://www.w3.org/2000/svg">
<path fill-rule="evenodd" clip-rule="evenodd" d="M15.6189 2.34905C15.0472 2.59735 14.442 2.76009 13.8229 2.83205C14.4731 2.451 14.9614 1.84528 15.1959 1.12905C14.5813 1.48793 13.9105 1.74048 13.2119 1.87605C12.917 1.5679 12.5626 1.32292 12.1701 1.156C11.7777 0.989078 11.3553 0.903696 10.9289 0.905045C9.20386 0.905045 7.80286 2.28405 7.80286 3.98305C7.80286 4.22505 7.83086 4.46004 7.88486 4.68304C6.64649 4.62438 5.43397 4.30807 4.32475 3.75432C3.21553 3.20058 2.234 2.42156 1.44286 1.46705C1.16561 1.93542 1.0195 2.46977 1.01986 3.01405C1.01986 4.08205 1.57186 5.02404 2.41086 5.57505C1.91517 5.55975 1.43005 5.42785 0.99486 5.19004V5.22804C0.99486 6.71905 2.07186 7.96405 3.50186 8.24605C3.04081 8.36764 2.55848 8.38506 2.08986 8.29705C2.29447 8.91241 2.68551 9.44884 3.20873 9.83194C3.73196 10.215 4.36144 10.4258 5.00986 10.435C3.89785 11.2937 2.5318 11.7581 1.12686 11.755C0.87386 11.755 0.626859 11.739 0.380859 11.712C1.81479 12.618 3.47672 13.0976 5.17286 13.095C10.9229 13.095 14.0659 8.40505 14.0659 4.33705C14.0664 4.20399 14.0634 4.07094 14.0569 3.93805C14.6679 3.50421 15.1963 2.96434 15.6169 2.34405L15.6189 2.34905Z" fill="white"/>
</svg>
